PathFileType	4	(X/Y/Z)	c:/Users/goper/Files/vsCode/490R/osim_files/C04/C04_SSWS_01.trc
DataRate	CameraRate	NumFrames	NumMarkers	Units                	OrigDataRate	OrigDataStartFrame	OrigNumFrames
250.00	250.00	7	36	mm	250.0	1496	2991
                Frame#	Time	LPSIS			LASIS			LTH1			LTH2			LTH3			LTH4			LLFE			LMFE			LSH1			LSH2			LSH3			LSH4			LLMAL			LMMAL			LCAL			LMTP5			LTOE			LMTP1			RPSIS			RASIS			RTH1			RTH2			RTH3			RTH4			RLFE			RMFE			RSH1			RSH2			RSH3			RSH4			RLMAL			RMMAL			RCAL			RMTP1			RTOE			RMTP5		
		X1	Y1	Z1	X2	Y2	Z2	X3	Y3	Z3	X4	Y4	Z4	X5	Y5	Z5	X6	Y6	Z6	X7	Y7	Z7	X8	Y8	Z8	X9	Y9	Z9	X10	Y10	Z10	X11	Y11	Z11	X12	Y12	Z12	X13	Y13	Z13	X14	Y14	Z14	X15	Y15	Z15	X16	Y16	Z16	X17	Y17	Z17	X18	Y18	Z18	X19	Y19	Z19	X20	Y20	Z20	X21	Y21	Z21	X22	Y22	Z22	X23	Y23	Z23	X24	Y24	Z24	X25	Y25	Z25	X26	Y26	Z26	X27	Y27	Z27	X28	Y28	Z28	X29	Y29	Z29	X30	Y30	Z30	X31	Y31	Z31	X32	Y32	Z32	X33	Y33	Z33	X34	Y34	Z34	X35	Y35	Z35	X36	Y36	Z36

1496	5.98000	-1282.01245	963.59302	244.65977	-1453.23584	926.79175	315.18469	-1409.06616	687.41364	370.46872	0.00000	0.00000	0.00000	-1464.68188	723.49805	377.90039	-1506.37463	672.66498	361.92926	-1575.48669	472.86572	324.34216	-1577.38818	468.85974	214.17416	-1549.38452	358.65891	324.22833	0.00000	0.00000	0.00000	-1602.62708	368.19400	333.05502	-1613.34412	321.17935	330.89029	-1629.36133	82.21387	318.18350	-1627.10999	108.01276	233.14285	-1571.05176	41.63397	266.81927	-1771.02161	72.69473	330.64362	-1783.20935	111.38291	284.59088	-1765.04077	77.10874	229.66808	-1278.30530	969.80414	169.65521	-1446.81885	940.06238	92.19560	-1312.25684	725.03174	25.65643	-1306.12573	665.12012	41.26599	-1378.25659	723.66211	29.16977	-1383.36511	663.08411	44.54692	-1319.59290	447.78592	88.23191	-1311.73682	450.33755	201.25273	-1221.11584	334.35229	75.73400	-1214.45398	289.73462	83.34758	-1283.23364	327.37964	79.26211	-1265.54175	273.70425	89.40885	-1173.24194	84.02199	118.68178	-1176.41235	94.95377	211.12578	-1105.61218	61.20085	160.95180	-1301.67163	25.85080	211.95494	-1331.71277	41.72305	175.75793	-1301.18774	14.98540	111.81886
1497	5.98400	-1286.54016	963.08813	244.92764	-1457.83948	926.21173	315.22861	-1413.21252	686.86627	370.63470	0.00000	0.00000	0.00000	-1468.92590	722.82812	378.06757	-1510.51208	671.71930	362.09918	-1579.25854	471.81625	324.36642	-1580.89673	467.93280	214.05301	-1554.87207	357.25031	324.06384	0.00000	0.00000	0.00000	-1608.02698	367.55157	332.82043	-1619.57019	320.63354	330.54630	-1639.50476	82.11862	318.00485	-1636.48975	107.92665	233.19119	-1581.51562	40.79362	266.89517	-1780.66406	75.21870	330.35992	-1792.69543	113.84386	284.00647	-1774.77661	79.29688	229.23152	-1282.72791	969.25433	169.90761	-1451.14771	939.31903	92.43922	-1315.93420	724.72272	25.94893	-1309.74341	664.82867	41.51173	-1382.05530	723.07446	29.36444	-1387.03650	662.49170	44.80644	-1322.71423	447.33868	88.41570	-1314.85547	450.03934	201.31877	-1223.44995	334.58902	75.82311	-1216.37036	290.06744	83.37198	-1285.50854	327.12912	79.38371	-1267.41260	273.62448	89.49512	-1173.57715	84.43662	118.59105	-1176.76001	95.54771	210.97725	-1105.82410	62.08665	160.94675	-1301.62024	26.11248	211.98059	-1331.76416	41.71599	175.66559	-1301.20386	14.92168	111.81977
1498	5.98800	-1291.13696	962.68103	245.25832	-1462.46167	925.66846	315.42578	-1417.53711	686.35364	370.83871	0.00000	0.00000	0.00000	-1473.36523	722.05286	378.24969	-1514.65466	670.88702	362.35413	-1582.98401	470.75708	324.39478	-1584.36987	467.02716	213.77107	-1560.41113	355.66730	323.60565	0.00000	0.00000	0.00000	-1613.42993	366.88507	332.57346	-1625.62048	320.18982	330.38290	-1649.04089	82.19733	317.83389	-1645.47314	107.81991	233.04218	-1591.52771	39.95897	266.96127	-1790.05542	77.58649	329.87259	-1801.58423	116.18771	283.48065	-1784.03796	81.22959	228.78358	-1287.25720	968.78247	170.21672	-1455.54663	938.57574	92.65408	-1319.80933	724.37933	26.22610	-1313.32605	664.53955	41.73728	-1385.84851	722.62671	29.55912	-1390.70703	661.98462	44.97079	-1325.72205	446.98315	88.52711	-1318.09192	449.71921	201.44978	-1225.77173	334.88306	75.87487	-1218.41113	290.46210	83.40321	-1287.79126	327.12372	79.46490	-1269.37134	273.59265	89.62199	-1173.98462	84.91058	118.50985	-1177.12915	96.18613	210.89674	-1106.14075	63.09699	160.88179	-1301.72913	26.36847	211.94223	-1331.87354	41.67030	175.66919	-1301.21777	14.87944	111.81528
1499	5.99200	-1295.73511	962.18518	245.57646	-1467.11938	925.16187	315.59259	-1421.96594	685.86896	371.10333	0.00000	0.00000	0.00000	-1477.83752	721.37878	378.44199	-1519.11633	669.98145	362.46918	-1586.88416	469.62076	324.49826	-1587.89233	466.04770	213.62573	-1565.68384	354.32852	323.88498	0.00000	0.00000	0.00000	-1618.61560	366.19757	332.40518	-1631.50867	319.71667	330.17905	-1658.19617	82.24358	317.59369	-1654.01306	107.83439	232.79959	-1601.31323	39.15549	266.84216	-1799.13525	79.73000	329.46832	-1810.25781	118.21718	283.12073	-1793.12866	83.09007	228.35558	-1291.77722	968.20959	170.56586	-1460.01843	937.83325	92.83733	-1323.60803	724.06958	26.48685	-1316.96106	664.26324	41.94881	-1389.66370	722.11450	29.79836	-1394.30701	661.49231	45.10717	-1329.04028	446.54443	88.74982	-1321.26562	449.43481	201.59152	-1228.13977	335.19800	75.87493	-1221.34241	290.47174	83.36157	-1290.26807	328.36148	79.45309	-1271.39343	273.56653	89.65775	-1175.14246	86.46141	118.81217	-1177.79053	96.75042	210.79504	-1106.51941	64.05997	160.79178	-1301.86853	26.54944	211.89780	-1331.97742	41.57964	175.64626	-1301.23486	14.83331	111.83652
1500	5.99600	-1300.49573	961.69299	245.91805	-1472.14514	924.60913	315.24933	-1426.60620	685.35559	371.34473	0.00000	0.00000	0.00000	-1482.46912	720.77374	378.64267	-1523.57764	669.17102	362.66956	-1590.84485	468.52579	324.55429	-1591.40417	465.13855	213.53709	-1571.07617	352.76611	323.43680	0.00000	0.00000	0.00000	-1623.72839	365.48734	332.24176	-1637.27698	319.13239	329.92477	-1668.19702	81.30495	316.73032	-1662.47522	107.62451	232.64943	-1610.50146	38.53112	266.61755	-1807.55188	81.89510	329.10193	-1818.25122	120.35528	282.67014	-1801.72180	84.75014	228.08842	-1296.23230	967.71613	170.81598	-1464.52112	937.14331	92.92447	-1327.54114	723.74652	26.81804	-1320.74951	663.92596	42.20298	-1390.79297	723.00659	28.20587	-1398.09326	660.96863	45.27570	-1332.17212	446.21121	88.86283	-1324.83411	448.93704	201.65488	-1230.73438	335.50339	75.90236	-1222.80603	290.98029	83.21603	-1292.66736	327.23618	79.82826	-1273.39832	273.54672	89.75649	-1175.65491	87.03648	118.74975	-1178.57922	97.38070	210.70845	-1106.91431	65.12256	160.79469	-1297.71631	26.23765	215.09622	-1332.11047	41.49504	175.61507	-1301.32214	14.85647	111.77896
1501	6.00000	-1305.21912	961.17041	246.23523	-1476.89172	924.21844	315.57941	-1431.25732	684.90216	371.58228	0.00000	0.00000	0.00000	-1487.37878	720.10187	378.81168	-1528.14441	668.40179	362.78940	-1594.63708	467.46152	324.66431	-1594.87964	464.16724	213.39714	-1576.14917	351.11578	323.27356	0.00000	0.00000	0.00000	-1628.73572	364.75476	332.03656	-1642.92957	318.44449	329.66180	-1673.91089	81.67698	317.41159	-1670.37964	107.58961	232.28976	-1619.28735	37.89665	266.27933	-1815.79419	83.69295	328.66190	-1826.28003	121.97079	282.33591	-1809.87122	86.32223	227.70280	-1300.94861	967.11823	171.20370	-1468.92554	936.64459	92.81145	-1331.44470	723.42480	27.09742	-1324.59216	663.60425	42.50251	-1394.52112	722.70496	28.30109	-1398.87317	661.85657	43.40577	-1333.01648	447.03336	88.14004	-1328.28796	448.57800	201.80579	-1233.26465	335.84106	75.96078	-1226.93872	290.97028	82.39842	-1295.39392	330.00394	80.99354	-1275.42114	273.51611	89.76868	-1176.29834	87.63879	118.77596	-1179.05908	98.08292	210.66714	-1107.22632	66.26437	160.74049	-1297.76807	26.26553	215.12297	-1332.22400	41.36232	175.60085	-1301.36377	14.80741	111.78552
1502	6.00400	-1309.91138	960.64270	246.63208	-1481.78772	923.56079	315.39984	-1435.98462	684.51147	371.83179	0.00000	0.00000	0.00000	-1492.17053	719.56665	378.99405	-1532.88965	667.69122	362.89697	-1598.47986	466.41034	324.81158	-1598.39331	463.26407	213.26930	-1581.15210	349.79813	323.52295	0.00000	0.00000	0.00000	-1633.77063	363.91647	331.85529	-1648.37109	317.82581	329.47470	-1679.27698	82.21251	317.98004	-1678.01953	107.59003	231.86086	-1627.60229	37.34986	265.84729	-1823.46631	85.23286	328.26663	-1833.66370	123.64830	281.91898	-1817.73389	87.75992	227.31190	-1305.40479	966.66058	171.60107	-1473.37170	936.11542	92.96439	-1335.41333	723.11365	27.35438	-1328.54468	663.18866	42.68846	-1398.59680	722.24524	28.52827	-1405.76758	660.03705	45.56927	-1336.42090	446.69806	88.27177	-1331.95435	448.12949	201.92038	-1235.73376	336.28662	76.00624	-1227.16663	291.89020	83.26258	-1297.57568	327.29733	79.78026	-1277.51526	273.64410	89.77825	-1177.01697	88.33173	118.74198	-1179.66956	98.82273	210.50424	-1107.65723	67.42502	160.64261	-1297.89966	26.27643	215.08055	-1332.33643	41.27780	175.63319	-1301.37964	14.79175	111.78849
